<mxfile host="app.diagrams.net" modified="2024-05-12T15:44:29.427Z" agent="Mozilla/5.0 (Windows NT 10.0; Win64; x64) AppleWebKit/537.36 (KHTML, like Gecko) Chrome/124.0.0.0 Safari/537.36 Edg/124.0.0.0" etag="5a22aVrerT3kk_1YRDqj" version="24.4.0" type="github">
  <diagram name="Page-1" id="Eb9sU96OdplAWFqUzaIq">
    <mxGraphModel dx="1386" dy="751" grid="1" gridSize="10" guides="1" tooltips="1" connect="1" arrows="1" fold="1" page="1" pageScale="1" pageWidth="827" pageHeight="1169" math="0" shadow="0">
      <root>
        <mxCell id="0" />
        <mxCell id="1" parent="0" />
        <mxCell id="dZGj8XaOmxsSCMRIT3Ci-1" value="&lt;h1 style=&quot;margin-top: 0px;&quot;&gt;Nourish&lt;/h1&gt;" style="text;html=1;whiteSpace=wrap;overflow=hidden;rounded=0;" vertex="1" parent="1">
          <mxGeometry width="180" height="40" as="geometry" />
        </mxCell>
        <mxCell id="dZGj8XaOmxsSCMRIT3Ci-4" value="Products" style="shape=cylinder3;whiteSpace=wrap;html=1;boundedLbl=1;backgroundOutline=1;size=15;" vertex="1" parent="1">
          <mxGeometry x="560" y="200" width="60" height="80" as="geometry" />
        </mxCell>
        <mxCell id="dZGj8XaOmxsSCMRIT3Ci-5" value="Recipes" style="shape=cylinder3;whiteSpace=wrap;html=1;boundedLbl=1;backgroundOutline=1;size=15;" vertex="1" parent="1">
          <mxGeometry x="560" y="310" width="60" height="80" as="geometry" />
        </mxCell>
        <mxCell id="dZGj8XaOmxsSCMRIT3Ci-6" value="Nutritional information of recipe per serving (good and bad)" style="rounded=1;whiteSpace=wrap;html=1;" vertex="1" parent="1">
          <mxGeometry x="110" y="120" width="120" height="60" as="geometry" />
        </mxCell>
        <mxCell id="dZGj8XaOmxsSCMRIT3Ci-7" value="Nutrition Values" style="shape=cylinder3;whiteSpace=wrap;html=1;boundedLbl=1;backgroundOutline=1;size=15;" vertex="1" parent="1">
          <mxGeometry x="560" y="90" width="60" height="80" as="geometry" />
        </mxCell>
        <mxCell id="dZGj8XaOmxsSCMRIT3Ci-12" value="Create balanced menu for week" style="rounded=1;whiteSpace=wrap;html=1;" vertex="1" parent="1">
          <mxGeometry x="110" y="200" width="120" height="60" as="geometry" />
        </mxCell>
        <mxCell id="dZGj8XaOmxsSCMRIT3Ci-13" value="Create balanced menu for week" style="rounded=1;whiteSpace=wrap;html=1;" vertex="1" parent="1">
          <mxGeometry x="110" y="290" width="120" height="60" as="geometry" />
        </mxCell>
        <mxCell id="dZGj8XaOmxsSCMRIT3Ci-15" value="Classify all weird ingredients to know how to read labels and choose good products" style="ellipse;shape=cloud;whiteSpace=wrap;html=1;" vertex="1" parent="1">
          <mxGeometry x="390" y="730" width="220" height="110" as="geometry" />
        </mxCell>
      </root>
    </mxGraphModel>
  </diagram>
</mxfile>
